# xmcd
#
# Track frame offsets: 
#        150
#        34075
#        61597
#        91990
#        111242
#        144825
#        184472
#        208695
#
# Disc length: 3802 seconds
#
# Revision: 11
# Processed by: cddbd v1.5.2PL0 Copyright (c) Steve Scherf et al.
# Submitted via: ExactAudioCopy v0.99pb5
#
DISCID=6a0ed808
DTITLE=Dexter Gordon - Ballads
DYEAR=1978
DGENRE=Jazz
TTITLE0=Darn That Dream
TTITLE1=Don't Explain
TTITLE2=I'm A Fool To Want You
TTITLE3=Ernie's Tune
TTITLE4=You've Changed
TTITLE5=Willow Weep For Me
TTITLE6=Guess I'll Hang My Tears Out To Dry
TTITLE7=Body And Soul
EXTD=Blue Note, CDP 7 96579 2,\na compilation dedicated to\nKatherine 
EXTD=Cox YEAR: 1978
EXTT0=
EXTT1=
EXTT2=
EXTT3=
EXTT4=
EXTT5=
EXTT6=
EXTT7=
PLAYORDER=
